<svg viewBox="0 0 20 18" fill="none" stroke="#333" xmlns="http://www.w3.org/2000/svg">
    <path d="M10 16.6666C9.74374 16.6666 9.49669 16.5729 9.30415 16.4027C8.577 15.7608 7.87593 15.1576 7.2574 14.6255L7.25424 14.6227C5.44081 13.0626 3.87485 11.7154 2.78528 10.3882C1.56731 8.90453 1 7.49779 1 5.96101C1 4.4679 1.50716 3.09041 2.42795 2.08211C3.35973 1.06189 4.63826 0.5 6.02844 0.5C7.06747 0.5 8.01903 0.831617 8.8566 1.48556C9.2793 1.81566 9.66244 2.21964 10 2.69087C10.3377 2.21964 10.7207 1.81566 11.1435 1.48556C11.9811 0.831617 12.9327 0.5 13.9717 0.5C15.3617 0.5 16.6404 1.06189 17.5722 2.08211C18.493 3.09041 19 4.4679 19 5.96101C19 7.49779 18.4328 8.90453 17.2149 10.3881C16.1253 11.7154 14.5595 13.0625 12.7463 14.6224C12.1267 15.1554 11.4245 15.7595 10.6957 16.4029C10.5033 16.5729 10.2561 16.6666 10 16.6666V16.6666Z" />
</svg>