<svg  viewBox="0 0 14 16" xmlns="http://www.w3.org/2000/svg">
    <path d="M11.3157 10.1862C10.4632 10.1862 9.70579 10.6005 9.2338 11.2381L5.17028 9.1615C5.23845 8.92989 5.27521 8.68496 5.27521 8.43157C5.27521 8.08839 5.20793 7.76068 5.08612 7.4607L9.34494 4.90189C9.82013 5.45963 10.5273 5.81403 11.3157 5.81403C12.7431 5.81403 13.9045 4.65271 13.9045 3.22525C13.9045 1.7978 12.7431 0.636475 11.3157 0.636475C9.88824 0.636475 8.72692 1.7978 8.72692 3.22525C8.72692 3.55518 8.78908 3.87081 8.90209 4.16124L4.63262 6.72643C4.15778 6.18515 3.46137 5.8428 2.68643 5.8428C1.25898 5.8428 0.0976562 7.00412 0.0976562 8.43157C0.0976562 9.85903 1.25898 11.0204 2.68643 11.0204C3.55287 11.0204 4.32116 10.5925 4.79131 9.93692L8.84304 12.0075C8.76759 12.2501 8.72692 12.5079 8.72692 12.775C8.72692 14.2024 9.88824 15.3637 11.3157 15.3637C12.7431 15.3637 13.9045 14.2024 13.9045 12.775C13.9045 11.3475 12.7431 10.1862 11.3157 10.1862ZM11.3157 1.4994C12.2673 1.4994 13.0415 2.27362 13.0415 3.22525C13.0415 4.17689 12.2673 4.95111 11.3157 4.95111C10.3641 4.95111 9.58984 4.17689 9.58984 3.22525C9.58984 2.27362 10.3641 1.4994 11.3157 1.4994ZM2.68643 10.1574C1.7348 10.1574 0.960582 9.38321 0.960582 8.43157C0.960582 7.47994 1.7348 6.70572 2.68643 6.70572C3.63807 6.70572 4.41229 7.47994 4.41229 8.43157C4.41229 9.38321 3.63807 10.1574 2.68643 10.1574ZM11.3157 14.5008C10.3641 14.5008 9.58984 13.7266 9.58984 12.775C9.58984 11.8233 10.3641 11.0491 11.3157 11.0491C12.2673 11.0491 13.0415 11.8233 13.0415 12.775C13.0415 13.7266 12.2673 14.5008 11.3157 14.5008Z"/>
</svg>