<svg width="24" height="24" viewBox="0 0 24 24" fill="none" xmlns="http://www.w3.org/2000/svg">
<g clip-path="url(#clip0)">
<path d="M23.2922 0.00439453H20.0112C19.6203 0.00439453 19.3034 0.321206 19.3034 0.712195C19.3034 1.10318 19.6203 1.42 20.0112 1.42H21.5835L14.3101 8.69326C13.6677 8.25008 12.89 7.9898 12.0522 7.9898C11.1877 7.9898 10.3873 8.26725 9.73339 8.73676L2.41662 1.42H3.98888C4.37977 1.42 4.69668 1.10318 4.69668 0.712195C4.69668 0.321206 4.37977 0.00439453 3.98888 0.00439453H0.7078C0.316906 0.00439453 0 0.321206 0 0.712195V3.99318C0 4.38417 0.316906 4.70098 0.7078 4.70098C1.09869 4.70098 1.4156 4.38417 1.4156 3.99318V2.42101L8.74596 9.75128C8.31665 10.3872 8.06571 11.153 8.06571 11.9763C8.06571 12.8118 8.32458 13.5877 8.76559 14.2291L1.4156 21.579V20.0069C1.4156 19.6159 1.09869 19.2991 0.7078 19.2991C0.316906 19.2991 0 19.6159 0 20.0069V23.2879C0 23.6789 0.316906 23.9957 0.7078 23.9957H3.98879C4.37968 23.9957 4.69659 23.6789 4.69659 23.2879C4.69659 22.8969 4.37968 22.5801 3.98879 22.5801H2.41652L9.76104 15.2357C10.4098 15.6931 11.1999 15.9628 12.0521 15.9628C14.2503 15.9628 16.0387 14.1746 16.0387 11.9764C16.0387 11.1263 15.7703 10.3381 15.3151 9.69031L22.5843 2.42111V3.99318C22.5843 4.38417 22.9012 4.70098 23.2921 4.70098C23.683 4.70098 23.9999 4.38417 23.9999 3.99318V0.712195C24 0.321206 23.6831 0.00439453 23.2922 0.00439453ZM12.0522 14.5472C10.6347 14.5472 9.48132 13.3939 9.48132 11.9764C9.48132 10.5588 10.6347 9.40549 12.0522 9.40549C12.6932 9.40549 13.2797 9.6418 13.7304 10.0313C13.7596 10.08 13.7944 10.1262 13.8364 10.1681C13.8802 10.2119 13.9287 10.248 13.9797 10.2779C14.3797 10.7312 14.6231 11.3258 14.6231 11.9764C14.6231 13.3939 13.4698 14.5472 12.0522 14.5472Z" fill="#979797"/>
<path d="M23.2923 19.2993C22.9014 19.2993 22.5845 19.6161 22.5845 20.0071V21.5792L17.277 16.2717C17.0005 15.9954 16.5524 15.9954 16.276 16.2717C15.9996 16.5482 15.9996 16.9963 16.276 17.2727L21.5836 22.5802H20.0113C19.6204 22.5802 19.3035 22.897 19.3035 23.288C19.3035 23.679 19.6204 23.9958 20.0113 23.9958H23.2923C23.6832 23.9958 24.0001 23.679 24.0001 23.288V20.007C24.0001 19.6161 23.6832 19.2993 23.2923 19.2993Z" fill="#979797"/>
</g>
<defs>
<clipPath id="clip0">
<rect width="24" height="24" fill="white"/>
</clipPath>
</defs>
</svg>
