<svg viewBox="0 0 15 15" fill="none" xmlns="http://www.w3.org/2000/svg">
    <path fill-rule="evenodd" clip-rule="evenodd"
          d="M14.8116 13.9029L12.4492 11.5414C12.4256 11.5174 12.3948 11.5071 12.3686 11.4874C14.6684 8.74029 14.5313 4.63114 11.9498 2.05029C10.6274 0.728143 8.869 0 6.99873 0C5.12846 0 3.37007 0.728143 2.04763 2.05029C-0.682544 4.77986 -0.682544 9.22157 2.04763 11.9507C3.37007 13.2733 5.12846 14.0014 6.99873 14.0014C8.65938 14.0014 10.23 13.425 11.4873 12.3707C11.5062 12.3964 11.5164 12.4269 11.54 12.4504L13.902 14.8119C14.0276 14.9374 14.1922 15 14.3568 15C14.5214 15 14.686 14.9374 14.8116 14.8119C15.0628 14.5607 15.0628 14.1536 14.8116 13.9029ZM6.99873 12.7157C5.47182 12.7157 4.03621 12.1209 2.95683 11.0417C0.728197 8.81357 0.728197 5.18829 2.95683 2.95929C4.03621 1.88014 5.47182 1.28571 6.99873 1.28571C8.52564 1.28571 9.96124 1.88014 11.0406 2.95929C13.2693 5.18829 13.2693 8.81357 11.0406 11.0417C9.96081 12.1209 8.52564 12.7157 6.99873 12.7157Z"
          fill="#B6B6B6"></path>
</svg>